<svg xmlns="http://www.w3.org/2000/svg" version="1.1" xmlns:xlink="http://www.w3.org/1999/xlink" xmlns:svgjs="http://svgjs.dev/svgjs" width="1000" height="623" viewBox="0 0 1000 623"><g transform="matrix(1,0,0,1,-0.6060606060606233,0.2522267206477409)"><svg viewBox="0 0 396 247" data-background-color="#ffffff" preserveAspectRatio="xMidYMid meet" height="623" width="1000" xmlns="http://www.w3.org/2000/svg" xmlns:xlink="http://www.w3.org/1999/xlink"><g id="tight-bounds" transform="matrix(1,0,0,1,0.2400000000000091,-0.09999999999999432)"><svg viewBox="0 0 395.52 247.2" height="247.2" width="395.52"><g><svg></svg></g><g><svg viewBox="0 0 395.52 247.2" height="247.2" width="395.52"><mask id="93df192c-36af-49f0-8a63-bffd5822775e"><rect width="640" height="400" fill="white"></rect><g transform="matrix(1,0,0,1,169.2503295622233,37.08)"><svg viewBox="0 0 57.01934087555337 173.04" height="173.04" width="57.01934087555337"><g><svg viewBox="0 0 57.01934087555337 173.04" height="173.04" width="57.01934087555337"><g><svg viewBox="0 0 57.01934087555337 173.04" height="173.04" width="57.01934087555337"><g><svg viewBox="0 0 57.01934087555337 173.04" height="173.04" width="57.01934087555337"><g id="SvgjsG1102"><svg viewBox="0 0 57.01934087555337 173.04" height="173.04" width="57.01934087555337" id="SvgjsSvg1101"><g><svg viewBox="0 0 57.01934087555337 173.04" height="173.04" width="57.01934087555337"><g transform="matrix(1,0,0,1,0,0)"><svg width="57.01934087555337" viewBox="0.03000000000000025 -38.69 14.739999999999998 42.69" height="173.04" data-palette-color="#2c2925"><path d="M4.03-28.08L4.03-34.69 10.77-34.69 10.77-28.08 4.03-28.08ZM4.39 0L4.39-24.12 10.4-24.12 10.4 0 4.39 0Z" opacity="1" transform="matrix(1,0,0,1,0,0)" fill="black" class="wordmark-text-0" id="SvgjsPath1100" stroke-width="7" stroke="black" stroke-linejoin="round"></path></svg></g></svg></g></svg></g></svg></g></svg></g></svg></g></svg></g></mask><g transform="matrix(1,0,0,1,169.2503295622233,37.08)"><svg viewBox="0 0 57.01934087555337 173.04" height="173.04" width="57.01934087555337"><g><svg viewBox="0 0 57.01934087555337 173.04" height="173.04" width="57.01934087555337"><g><svg viewBox="0 0 57.01934087555337 173.04" height="173.04" width="57.01934087555337"><g><svg viewBox="0 0 57.01934087555337 173.04" height="173.04" width="57.01934087555337"><g id="textblocktransform"><svg viewBox="0 0 57.01934087555337 173.04" height="173.04" width="57.01934087555337" id="textblock"><g><svg viewBox="0 0 57.01934087555337 173.04" height="173.04" width="57.01934087555337"><g transform="matrix(1,0,0,1,0,0)"><svg width="57.01934087555337" viewBox="0.03000000000000025 -38.69 14.739999999999998 42.69" height="173.04" data-palette-color="#2c2925"><path d="M4.03-28.08L4.03-34.69 10.77-34.69 10.77-28.08 4.03-28.08ZM4.39 0L4.39-24.12 10.4-24.12 10.4 0 4.39 0Z" opacity="1" transform="matrix(1,0,0,1,0,0)" fill="#2c2925" class="wordmark-text-0" data-fill-palette-color="primary" id="text-0"></path></svg></g></svg></g></svg></g></svg></g></svg></g></svg></g></svg></g><g mask="url(#93df192c-36af-49f0-8a63-bffd5822775e)"><g transform="matrix(3.0645055912779124, 0, 0, 3.0645055912779124, 100.6151727564902, 1)"><svg xmlns="http://www.w3.org/2000/svg" xmlns:xlink="http://www.w3.org/1999/xlink" version="1.1" x="0" y="0" viewBox="-250.70000000000002 140.98709328582086 63.39999999999998 80.01290671417914" enable-background="new -269 131 100 100" xml:space="preserve" height="80.01290671417914" width="63.39999999999998" class="icon-none" data-fill-palette-color="accent" id="none"><path d="M-200.1 163.7l-1-0.8c-1.2-1-3.1-0.6-3.8 0.8-0.3 0.7-0.6 7.7-0.6 8.9 0 0.2 0 0.6 0 0.7 0 1-0.9 1.8-1.9 1.6-0.8-0.1-1.4-0.9-1.4-1.7-0.1-12-3.7-20.4-10.5-26.7-4.1-3.8-9-7.2-10.5-4.6-0.4 0.7 0.2 2.2 0.9 4.1 1.4 4.3-2.9 11.2-9 18.1-5.7 6.5-12.8 14.5-12.8 26.4 0 16 15.1 30.5 31.7 30.5 16.6 0 31.7-14.5 31.7-30.5C-187.3 180.4-192.1 170.4-200.1 163.7zM-219 215.2c-7.2 0-13.1-5.9-13.1-13.1 0-3.6 1.4-6.8 3.8-9.2l7.2-8.6c1.1-1.3 3.2-1.3 4.3 0l7.2 8.6c2.3 2.4 3.8 5.6 3.8 9.2C-205.9 209.3-211.8 215.2-219 215.2z" fill="#c56e33" data-fill-palette-color="accent"></path></svg></g></g></svg></g><defs></defs></svg><rect width="395.52" height="247.2" fill="none" stroke="none" visibility="hidden"></rect></g></svg></g></svg>